<?xml version="1.0" encoding="UTF-8"?>
<svg width="120" height="120" viewBox="0 0 120 120" fill="none" xmlns="http://www.w3.org/2000/svg">
  <ellipse cx="60" cy="70" rx="38" ry="32" fill="#F3E6FF"/>
  <ellipse cx="60" cy="70" rx="28" ry="22" fill="#E1D7F7"/>
  <ellipse cx="60" cy="70" rx="18" ry="12" fill="#F9F6FB"/>
  <path d="M60 70 Q65 60 80 60 Q95 60 90 80 Q85 100 60 100 Q35 100 30 80 Q25 60 40 60 Q55 60 60 70" fill="#F7D6E0"/>
  <ellipse cx="60" cy="80" rx="7" ry="4" fill="#F2B5D4"/>
  <ellipse cx="54" cy="66" rx="2.5" ry="2.5" fill="#A48FCB"/>
  <ellipse cx="66" cy="66" rx="2.5" ry="2.5" fill="#A48FCB"/>
  <path d="M57 75 Q60 78 63 75" stroke="#A48FCB" stroke-width="1.5" fill="none"/>
  <path d="M60 38 Q62 50 60 58 Q58 50 60 38" fill="#E1D7F7"/>
  <ellipse cx="60" cy="36" rx="6" ry="10" fill="#F3E6FF"/>
</svg> 